<svg xmlns="http://www.w3.org/2000/svg" width="276" height="59" fill="none"><g clip-path="url(#a)"><path fill="#A0A0A0" d="M266.889 57.705h5.062v1.108h-6.271V48.735h5.998v1.108h-4.789v3.252h4.259v1.108h-4.259zm-9.134-8.065c-.546 0-1.053.086-1.529.265q-.716.27-1.232.796c-.351.35-.624.795-.827 1.318s-.304 1.139-.304 1.833.093 1.295.281 1.802q.28.76.795 1.263c.343.336.757.578 1.248.741a5.3 5.3 0 0 0 1.623.242c.163 0 .335 0 .514-.023.18-.016.367-.04.546-.078q.281-.048.539-.11a8 8 0 0 0 .468-.14v1.084a4.7 4.7 0 0 1-1.014.266 7.4 7.4 0 0 1-1.178.093c-.819 0-1.552-.117-2.184-.35-.632-.235-1.17-.57-1.599-1.007a4.4 4.4 0 0 1-.983-1.6c-.218-.63-.328-1.34-.328-2.144 0-.803.117-1.505.351-2.16a4.75 4.75 0 0 1 1.014-1.693 4.5 4.5 0 0 1 1.599-1.1c.624-.265 1.334-.398 2.114-.398a6 6 0 0 1 1.194.101 4.3 4.3 0 0 1 .92.257v1.085a8 8 0 0 0-.967-.25 5.4 5.4 0 0 0-1.053-.101zm-14.071 4.711a94 94 0 0 1 1.794 2.738h.039a47 47 0 0 1-.094-2.995v-5.359h1.201v10.078h-1.193l-3.877-5.616a70 70 0 0 1-1.794-2.738h-.039q.094 1.378.094 3.213v5.14h-1.201V48.736h1.193zm-16.022 3.346h5.062v1.108h-6.271V48.727h5.998v1.108h-4.789v3.252h4.259v1.108h-4.259zm-8.736 1.108V48.727h1.201v10.078zm-7.933-9.173q-.817-.002-1.528.265c-.476.18-.89.445-1.233.796-.351.35-.624.796-.827 1.318-.202.523-.304 1.139-.304 1.833s.094 1.295.281 1.802q.28.76.796 1.264a3.2 3.2 0 0 0 1.248.74 5.2 5.2 0 0 0 1.622.242c.164 0 .335 0 .515-.023a5 5 0 0 0 .546-.078q.28-.048.538-.11.258-.07.468-.14v1.085a4.7 4.7 0 0 1-1.014.265q-.575.093-1.186.093c-.819 0-1.552-.117-2.184-.35-.631-.235-1.17-.57-1.599-1.007a4.4 4.4 0 0 1-.982-1.599c-.219-.632-.328-1.341-.328-2.145 0-.803.117-1.505.351-2.16a4.7 4.7 0 0 1 1.014-1.693 4.5 4.5 0 0 1 1.599-1.1c.624-.265 1.334-.398 2.114-.398.203 0 .413 0 .616.024.203.015.398.046.577.078a4.2 4.2 0 0 1 .921.257v1.084a8 8 0 0 0-.968-.25 5.4 5.4 0 0 0-1.053-.1zm-16.044 1.763q.002.442.179.733c.117.195.281.351.476.476s.429.226.694.312q.395.119.827.226c.382.094.764.203 1.131.32q.56.174.99.476.434.305.702.795c.18.328.273.75.273 1.256 0 .507-.093.975-.288 1.35a2.5 2.5 0 0 1-.788.936 3.7 3.7 0 0 1-1.209.546 6.3 6.3 0 0 1-1.537.179 7 7 0 0 1-1.552-.18 6 6 0 0 1-.663-.187 2.5 2.5 0 0 1-.468-.21V57.3c.18.093.375.171.601.25a7 7 0 0 0 2.082.366c.344 0 .679-.031.991-.094.312-.062.585-.156.819-.304a1.6 1.6 0 0 0 .562-.577c.14-.242.202-.546.202-.913q-.002-.456-.179-.749a1.43 1.43 0 0 0-.484-.483 3 3 0 0 0-.694-.312 18 18 0 0 0-.827-.227 24 24 0 0 1-1.123-.304 3.8 3.8 0 0 1-.983-.468 2.3 2.3 0 0 1-.694-.772c-.171-.32-.265-.718-.265-1.217s.086-.951.265-1.318q.27-.55.726-.913a3.1 3.1 0 0 1 1.068-.538 4.7 4.7 0 0 1 1.311-.171q.795.002 1.474.156c.46.101.873.234 1.256.405v1.139a9 9 0 0 0-1.264-.429 6.2 6.2 0 0 0-1.404-.172c-.374 0-.694.04-.975.125a2 2 0 0 0-.686.351c-.18.148-.32.336-.406.554s-.133.46-.133.725zm-13.814 7.41h-1.202V48.727h5.89v1.108h-4.688v3.252h4.157v1.108h-4.157zm-7.169-5.031c0 .764-.109 1.459-.327 2.098a4.9 4.9 0 0 1-.928 1.654 4.3 4.3 0 0 1-1.459 1.076 4.6 4.6 0 0 1-1.911.39c-.71 0-1.381-.125-1.958-.39a4.1 4.1 0 0 1-1.459-1.076 4.8 4.8 0 0 1-.912-1.654 6.6 6.6 0 0 1-.32-2.098c0-.764.109-1.474.328-2.114a4.9 4.9 0 0 1 .928-1.654 4.2 4.2 0 0 1 1.459-1.076 4.6 4.6 0 0 1 1.918-.39c.71 0 1.373.133 1.943.39a4.1 4.1 0 0 1 1.458 1.076 4.8 4.8 0 0 1 .913 1.654c.21.64.32 1.342.32 2.114zm-1.271 0c0-.679-.086-1.272-.257-1.794-.172-.515-.414-.952-.718-1.295a3.1 3.1 0 0 0-1.069-.788 3.3 3.3 0 0 0-1.326-.265c-.475 0-.912.086-1.326.265-.413.18-.772.437-1.068.788a3.6 3.6 0 0 0-.71 1.295q-.258.774-.257 1.794c0 .678.085 1.271.265 1.786.179.515.413.944.717 1.287a2.9 2.9 0 0 0 1.069.78 3.4 3.4 0 0 0 1.334.265 3.2 3.2 0 0 0 1.318-.265 2.9 2.9 0 0 0 1.061-.78c.304-.35.538-.78.717-1.287q.258-.77.258-1.786zm-21.021 3.923h5.062v1.108h-6.271V48.727h5.998v1.108h-4.789v3.252h4.259v1.108h-4.259zm-8.666-2.964h-2.254v-1.107h3.455V58.5a3 3 0 0 1-.452.171 8 8 0 0 1-1.514.28 8 8 0 0 1-.865.048c-.851 0-1.592-.117-2.239-.351a4.4 4.4 0 0 1-1.63-1.006 4.2 4.2 0 0 1-.999-1.576q-.337-.922-.335-2.067c0-.827.133-1.568.39-2.246a4.9 4.9 0 0 1 1.115-1.724 4.9 4.9 0 0 1 1.716-1.1 6.1 6.1 0 0 1 2.208-.39 7 7 0 0 1 1.809.218q.246.07.422.14v1.085a7 7 0 0 0-1.022-.25 6.4 6.4 0 0 0-1.155-.101q-.844 0-1.606.257c-.507.172-.96.437-1.35.788s-.694.796-.928 1.319q-.351.797-.351 1.864c0 .71.094 1.302.289 1.81.187.506.46.927.803 1.255s.764.577 1.264.733a5.4 5.4 0 0 0 1.645.234q.424 0 .835-.046c.273-.032.515-.07.725-.125v-2.995zm-17.41 2.964h5.062v1.108h-6.271V48.727h5.998v1.108h-4.789v3.252h4.259v1.108h-4.259zm-11.692-8.97v8.97h4.82v1.108h-6.022V48.727zm-11.693 0v8.97h4.821v1.108h-6.022V48.727zm-7.168 5.047c0 .764-.11 1.459-.328 2.098a5 5 0 0 1-.928 1.654q-.606.69-1.458 1.076c-.57.258-1.202.39-1.911.39s-1.381-.125-1.958-.39a4.1 4.1 0 0 1-1.459-1.076 4.8 4.8 0 0 1-.912-1.654 6.7 6.7 0 0 1-.32-2.098c0-.764.109-1.474.327-2.114q.33-.961.929-1.654c.397-.46.889-.819 1.458-1.076a4.6 4.6 0 0 1 1.919-.39c.71 0 1.373.133 1.942.39a4.1 4.1 0 0 1 1.459 1.076 4.8 4.8 0 0 1 .912 1.654c.211.64.32 1.342.32 2.114zm-1.271 0c0-.679-.086-1.272-.258-1.794a3.8 3.8 0 0 0-.71-1.295 3.1 3.1 0 0 0-1.068-.788 3.3 3.3 0 0 0-1.326-.265c-.476 0-.913.086-1.326.265a2.9 2.9 0 0 0-1.069.788c-.304.351-.538.78-.71 1.295q-.257.774-.257 1.794-.002 1.015.265 1.786c.18.515.414.944.718 1.287s.655.608 1.068.78.858.265 1.334.265a3.2 3.2 0 0 0 1.318-.265 2.9 2.9 0 0 0 1.061-.78q.455-.526.71-1.287.257-.77.257-1.786zm-15.57-4.142q-.816-.002-1.528.265c-.476.18-.89.445-1.233.796-.35.35-.624.796-.826 1.318-.203.523-.305 1.139-.305 1.833s.094 1.295.281 1.802q.281.76.796 1.264c.343.335.757.577 1.248.74a5.3 5.3 0 0 0 1.622.242c.164 0 .336 0 .515-.023.18-.016.367-.04.546-.078a8 8 0 0 0 .538-.11 9 9 0 0 0 .468-.14v1.085a4.7 4.7 0 0 1-1.014.265c-.382.062-.78.093-1.177.093-.82 0-1.553-.117-2.184-.35-.632-.235-1.17-.57-1.6-1.007a4.4 4.4 0 0 1-.982-1.599c-.219-.632-.328-1.341-.328-2.145 0-.803.117-1.505.351-2.16a4.7 4.7 0 0 1 1.014-1.693 4.5 4.5 0 0 1 1.607-1.1c.624-.265 1.334-.398 2.114-.398.21 0 .413 0 .608.024.203.015.398.046.577.078a4.2 4.2 0 0 1 .92.257v1.084a8 8 0 0 0-.966-.25 5.4 5.4 0 0 0-1.053-.1l-.008.007Z"/><path fill="#274478" fill-rule="evenodd" d="m123.992 39.148-15.054-33.86-.133 24.867v1.77c0 1.724.117 3.05.359 3.97a6.6 6.6 0 0 0 1.139 2.45h-7.41c1.224-.951 2.113-3.962 2.675-9.071q.829-7.655.827-23.393c0-.967-.117-1.747-.367-2.332-.242-.6-.655-1.147-1.248-1.67h7.278c.6 0 .99.07 1.185.211.187.14.367.406.531.82l11.786 27.47 13.104-27.19c.226-.523.491-.874.78-1.045.281-.18.741-.265 1.38-.265h6.365c-.554.624-.959 1.622-1.193 2.987-.25 1.365-.367 3.33-.367 5.905 0 9.516.226 16.17.687 19.984.46 3.798 1.248 6.333 2.371 7.59h-9.571c.609-.82 1.053-1.834 1.311-3.043.273-1.217.405-2.948.405-5.203 0-.015-.008-.14-.031-.358-.047-1.451-.086-2.965-.133-4.564l-.382-19.89L124 39.148zm40.186-35.326c0 .164-.024 1.139-.07 2.917-.055 1.786-.094 3.245-.125 4.391-.031 1.147-.063 2.395-.102 3.752-.039 1.342-.062 2.13-.062 2.325 0 1.81.023 3.798.062 5.951 1.763.43 3.393.648 4.907.648q2.515 0 5.078-.913c1.708-.6 3.143-1.638 4.313-3.104 1.178-1.459 1.763-3.386 1.763-5.773 0-1.84-.421-3.58-1.279-5.21s-2.184-2.956-3.955-3.97c-1.778-1.022-3.9-1.529-6.373-1.529-1.271 0-2.66.172-4.149.507zm-8.705 34.905v-.842c1.544-.413 2.543-.718 3.019-.928.475-.203.748-.523.826-.975.312-1.061.453-5.382.453-12.948q.002-1.753-.008-3.823a126 126 0 0 0-.055-3.198q-.033-1.134-.148-3.51a162 162 0 0 0-.218-4.032c-.102-1.615-.195-2.645-.289-3.081-.086-.437-.226-.796-.405-1.069-.289-.39-.718-.67-1.272-.811-.569-.156-1.388-.289-2.465-.39a7 7 0 0 1 0-1.123c1.623.117 3.518.171 5.702.171.632 0 1.732-.039 3.315-.117l1.903-.132a25 25 0 0 1 1.943-.055c2.847 0 5.335.359 7.48 1.084s3.939 1.685 5.382 2.894c1.451 1.201 2.512 2.488 3.221 3.861.695 1.365 1.046 2.699 1.046 4.01 0 2.012-.671 3.9-1.997 5.678-1.334 1.763-3.315 3.206-5.92 4.306q-3.91 1.651-9.212 1.653-2.036.002-3.908-.289c.023 1.46.039 3.16.062 5.102.008 1.95.031 3.128.055 3.541.062 1.115.218 1.919.452 2.402.25.476.749.827 1.498 1.03.764.21 2.028.351 3.806.453l-.062 1.255c-.765-.132-1.802-.226-3.097-.288a85 85 0 0 0-3.237-.102c-2.223 0-3.962.086-5.218.273l-1.544.172c-.414 0-.788-.055-1.131-.172zm32.534-35.412V2.114c2.286.117 3.713.195 4.275.226q3.09.103 4.157.101c.234 0 1.295-.039 3.143-.101 1.865-.078 3.612-.156 5.25-.226v1.318q-2.667-.002-3.635.265-.98.258-1.459 1.053c-.67 1.17-1.006 5.647-1.006 13.44 0 5.358.008 8.76.024 10.186.007 1.42.039 2.949.101 4.571.039 1.295.156 2.223.328 2.77.187.538.686.943 1.489 1.209.812.265 2.114.42 3.908.428l-.124 1.1a54 54 0 0 1-1.685-.047c-.835-.03-1.709-.046-2.606-.07-.897-.015-1.583-.03-2.067-.039a100 100 0 0 0-1.669-.015c-.889 0-1.638.008-2.238.015-.593.008-1.389.016-2.379.04q-1.476.022-2.684.07c-.795.03-1.279.046-1.435.046l-.062-1.037c2.184-.102 3.65-.343 4.43-.694a2.9 2.9 0 0 0 1.576-1.709c.405-.998.663-2.909.772-5.717.101-2.808.164-5.764.164-8.877 0-2.815-.102-6.856-.297-12.129-.062-1.458-.218-2.504-.475-3.12-.25-.632-.819-1.084-1.701-1.38-.881-.297-2.246-.46-4.11-.476zm33.244 16.38q.539 0 .959.023c.274.008.492.008.664.008 3.751 0 6.583-.749 8.486-2.254s2.863-3.416 2.863-5.718c0-2.3-.773-4.095-2.317-5.514q-2.307-2.13-6.123-2.13c-1.108 0-2.621.172-4.54.5v15.085zm21.427 18.666c-3.253-.304-5.14-1.443-7.629-4.657l-9.687-12.316c-.983.023-1.786.03-2.41.03-.25 0-.507-.007-.804-.023-.281-.007-.577-.007-.897-.007v10.538c0 2.277.273 3.697.804 4.25.741.773 1.848 1.155 3.307 1.155h1.552v.998H210.05v-.998h1.474c1.662 0 2.855-.5 3.565-1.498.406-.553.616-1.856.616-3.915V8.502c0-2.278-.257-3.697-.788-4.251q-1.158-1.194-3.393-1.194h-1.474V2.06h14.345c4.18 0 7.254.28 9.25.842a10.87 10.87 0 0 1 5.047 3.105c1.381 1.505 2.067 3.3 2.067 5.39 0 2.23-.788 4.173-2.363 5.819-1.576 1.63-4.01 2.8-7.332 3.478l8.104 10.398c2.761 3.518 5.179 5.811 10.023 6.248-1.927.99-4.672 1.193-6.513 1.022Zm7.925-.024c.569-.561.959-1.833 1.185-3.83.234-1.996.351-6.279.351-12.838v-2.333c0-7.145-.117-11.708-.351-13.681-.226-1.974-.616-3.23-1.185-3.791h3.822c2.722 0 5.827-.031 9.298-.086 3.455-.054 5.561-.086 6.302-.086.039 0 .164.008.359.032.624.015 1.232.03 1.809.03l.484 5.367c-.484-1.162-1.451-1.981-2.909-2.449-1.451-.468-4.228-.694-8.315-.694h-3.432q-.304 1.191-.445 3.962c-.093 1.841-.132 4.5-.132 7.98v1.887c.507.04 1.068.07 1.716.086.639.016 1.677.031 3.104.031 2.426 0 4.462-.046 6.107-.148a43 43 0 0 0 4.431-.483c-1.131 1.2-2.621 2.043-4.47 2.55-1.864.5-4.953.749-9.297.749q-.153.002-.679-.031c-.351-.016-.655-.031-.912-.031v3.697c0 3.479.039 6.146.132 8.01.094 1.857.234 3.183.445 3.979h3.549c4.079 0 7.137-.305 9.18-.897 2.044-.609 3.643-1.615 4.759-3.011l-1.046 5.694c-.819.14-1.77.257-2.816.335q-1.589.117-3.33.117c-.944 0-2.816-.015-5.616-.054-2.8-.04-5.14-.055-7.036-.055h-5.062zm-178.443 0c.57-.561.96-1.833 1.186-3.83.234-1.996.35-6.279.35-12.838v-2.333c0-7.145-.116-11.708-.35-13.681-.226-1.974-.616-3.23-1.186-3.791h3.822c2.722 0 5.827-.031 9.298-.086 3.455-.054 5.561-.086 6.302-.086.04 0 .164.008.36.032.623.015 1.232.03 1.809.03l.483 5.367c-.483-1.162-1.45-1.981-2.909-2.449-1.45-.468-4.228-.694-8.315-.694h-3.432q-.304 1.191-.445 3.962c-.093 1.841-.132 4.5-.132 7.98v1.887c.507.04 1.068.07 1.716.086.64.016 1.677.031 3.104.031 2.426 0 4.462-.046 6.108-.148a43 43 0 0 0 4.43-.483c-1.13 1.2-2.62 2.043-4.47 2.55-1.864.5-4.952.749-9.297.749q-.152.002-.679-.031c-.35-.016-.655-.031-.912-.031v3.697c0 3.479.039 6.146.132 8.01.094 1.857.234 3.183.445 3.979h3.55c4.079 0 7.136-.305 9.18-.897 2.043-.609 3.642-1.615 4.758-3.011l-1.045 5.694c-.82.14-1.771.257-2.816.335a45 45 0 0 1-3.33.117c-.945 0-2.817-.015-5.617-.054a510 510 0 0 0-7.036-.055H72.16z" clip-rule="evenodd"/><path fill="#274478" d="M59.102 0H.5v58.204h58.602z"/><path fill="#FFD44C" fill-rule="evenodd" d="M11.85 13.174a2.61 2.61 0 0 1 2.605 2.606 2.61 2.61 0 0 1-2.606 2.605 2.61 2.61 0 0 1-2.605-2.606 2.61 2.61 0 0 1 2.605-2.605Zm17.947-4.633a4.724 4.724 0 0 1 4.727 4.727 4.724 4.724 0 0 1-4.727 4.727 4.73 4.73 0 0 1-4.727-4.727 4.734 4.734 0 0 1 4.727-4.727m17.948 4.633a2.61 2.61 0 0 1 2.606 2.606 2.61 2.61 0 0 1-2.606 2.605 2.61 2.61 0 0 1-2.605-2.606 2.61 2.61 0 0 1 2.605-2.605m-35.99 6.95 9.072 9.072 8.877-9.072 9.266 9.072 8.877-9.072v29.531H11.756v-29.53Z" clip-rule="evenodd"/></g><defs><clipPath id="a"><path fill="#fff" d="M.5 0h275v59H.5z"/></clipPath></defs></svg>